# xmcd CD database file generated by Grip 3.0.7
# 
# Track frame offsets:
#       182
#       18132
#       47157
#       68827
#       85952
#       108182
#       127850
#       148840
#       174462
#       194875
# 
# Disc length: 2876 seconds
# 
# Revision: 4
# Processed by: cddbd v1.4PL0 Copyright (c) Steve Scherf et al.
# Submitted via: Grip 3.0.7
# 
DISCID=880b3a0a
DTITLE=Leila Pinheiro - Bênção Bossa Nova
DYEAR=1989
DGENRE=blues
TTITLE0=Lobo Bobo, Saudade Fez um Samba, Você e Eu, Se é Tarde me Perdoa
TTITLE1=O Amor em Paz, Meditação, Corcovado, Ela é Carioca
TTITLE2=Pra Dizer Adeus, Candeias
TTITLE3=Preciso Aprender a Ser Só, Samba de Verão, Gente
TTITLE4=Batida Diferente, Moça Flor, Tristeza de Nós Dois
TTITLE5=Que Maravilha, Chove Chuva, Mas Que Nada
TTITLE6=Ilusão à Toa, O Que É Amar
TTITLE7=Ah! Se Eu Pudesse, O Barquinho/Você, Nós e o Mar
TTITLE8=Mentiras, Até Quem Sabe
TTITLE9=Pra Que Chorar, Tem Dó, Samba da Benção
EXTD=
EXTT0=
EXTT1=
EXTT2=
EXTT3=
EXTT4=
EXTT5=
EXTT6=
EXTT7=
EXTT8=
EXTT9=
PLAYORDER=
